<?xml version="1.0" encoding="UTF-8" standalone="no"?>
<!-- Created with Inkscape (http://www.inkscape.org/) by Marsupilami -->
<svg
   xmlns:svg="http://www.w3.org/2000/svg"
   xmlns="http://www.w3.org/2000/svg"
   version="1.0"
   width="1024"
   height="212"
   viewBox="0 0 158.53125 32.78125"
   id="svg3977">
  <defs
     id="defs3979">
    <clipPath
       id="clipPath3128">
      <path
         d="M 469.054,290.925 L 611.258,290.925 L 611.258,252.837 L 469.054,252.837 L 469.054,290.925 z "
         id="path3130" />
    </clipPath>
  </defs>
  <g
     transform="translate(350.6942,32.59987)"
     id="layer1">
    <g
       transform="matrix(1.25,0,0,-1.25,-940.5067,327.30638)"
       id="g3124">
      <g
         clip-path="url(#clipPath3128)"
         id="g3126">
        <path
           d="M 569.75,900.09375 L 566.59375,903.25 L 569.75,906.40625 L 572.9375,903.25 L 569.75,900.09375 z M 475.3125,902.71875 L 475.3125,904.625 L 476.6875,904.625 L 476.6875,902.71875 L 475.3125,902.71875 z M 531.96875,902.71875 L 531.96875,926.15625 L 533.34375,926.15625 L 533.34375,902.71875 L 531.96875,902.71875 z M 586.53125,903.6875 L 586.53125,911.65625 C 585.45242,909.99176 584.00271,909.21875 581.9375,909.21875 C 577.96121,909.21878 574.96875,913.03819 574.96875,918.0625 C 574.96878,920.31267 575.64034,922.6159 576.75,924.21875 C 577.89046,925.82162 579.90312,926.84375 581.9375,926.84375 C 584.00271,926.84376 585.45241,926.10242 586.53125,924.46875 L 586.53125,926.15625 L 590.84375,926.15625 L 590.84375,903.6875 L 586.53125,903.6875 z M 465.75,904.5 L 465.75,909.28125 L 463.75,909.28125 L 463.75,910.46875 L 465.75,910.46875 L 465.75,920.59375 C 465.75,922.69083 466.22424,924.13481 467.1875,924.9375 C 468.15074,925.74021 469.34409,926.15623 470.71875,926.15625 L 472.84375,926.15625 L 472.84375,924.96875 L 470.625,924.96875 C 469.32059,924.96875 468.33855,924.40505 467.65625,923.28125 C 467.32513,922.76953 467.15625,921.8781 467.15625,920.59375 L 467.15625,910.46875 L 472.84375,910.46875 L 472.84375,909.28125 L 467.15625,909.28125 L 467.15625,904.5 L 465.75,904.5 z M 439.5625,908.875 C 438.12765,908.87502 436.80899,909.281 435.625,910.09375 C 434.82229,910.63559 434.17917,911.44531 433.6875,912.46875 L 433.6875,909.28125 L 432.3125,909.28125 L 432.3125,926.15625 L 433.6875,926.15625 L 433.6875,916.625 C 433.6875,914.21689 434.2624,912.53582 435.40625,911.5625 C 436.54007,910.59927 437.90462,910.09374 439.5,910.09375 C 440.86459,910.09377 441.89138,910.54452 442.59375,911.4375 C 443.29611,912.33053 443.65624,913.87513 443.65625,916.0625 L 443.65625,926.15625 L 445.03125,926.15625 L 445.03125,915.96875 C 445.03123,913.50043 444.55584,911.71753 443.5625,910.59375 C 442.56913,909.45994 441.22811,908.87499 439.5625,908.875 z M 454.40625,908.875 C 453.37276,908.87502 452.28003,909.04391 451.15625,909.375 C 450.38364,909.6058 449.54927,910.01067 448.65625,910.5625 L 448.65625,912.0625 C 449.6797,911.36014 450.51407,910.88704 451.15625,910.65625 C 452.15963,910.29505 453.16174,910.09374 454.125,910.09375 C 456.07156,910.09377 457.46965,910.59929 458.3125,911.5625 C 459.16536,912.52576 459.59373,913.755 459.59375,915.25 L 459.59375,915.5 L 456.15625,915.5 C 453.30663,915.50001 451.25424,916.04022 450,917.09375 C 448.74577,918.13728 448.12501,919.53536 448.125,921.28125 C 448.125,923.02714 448.59925,924.34696 449.5625,925.25 C 450.52575,926.14301 451.85558,926.59374 453.53125,926.59375 C 454.53463,926.59375 455.51781,926.3354 456.53125,925.84375 C 457.80554,925.23169 458.85238,923.80003 459.625,921.5625 L 459.625,926.15625 L 460.96875,926.15625 L 460.96875,916.53125 C 460.96873,913.67161 460.42625,911.72098 459.3125,910.6875 C 458.02815,909.48345 456.39295,908.87499 454.40625,908.875 z M 487,908.875 C 484.84271,908.87502 483.12922,909.68587 481.875,911.28125 C 480.62077,912.87665 479.99999,915.01966 480,917.71875 C 480,920.4881 480.59953,922.68585 481.84375,924.28125 C 483.09798,925.87663 484.83269,926.65624 487,926.65625 C 489.14723,926.65625 490.8183,925.85542 492.0625,924.25 C 493.31672,922.65462 493.96875,920.47807 493.96875,917.71875 C 493.96873,915.04976 493.31673,912.89673 492.0625,911.28125 C 490.81829,909.67585 489.14724,908.87499 487,908.875 z M 505.5625,908.875 C 504.12765,908.87502 502.80899,909.281 501.625,910.09375 C 500.82229,910.63559 500.17916,911.44531 499.6875,912.46875 L 499.6875,909.28125 L 498.3125,909.28125 L 498.3125,926.15625 L 499.6875,926.15625 L 499.6875,916.625 C 499.6875,914.21689 500.26239,912.53582 501.40625,911.5625 C 502.54007,910.59927 503.90462,910.09374 505.5,910.09375 C 506.86459,910.09377 507.89137,910.54452 508.59375,911.4375 C 509.29611,912.33053 509.65624,913.87513 509.65625,916.0625 L 509.65625,926.15625 L 511.03125,926.15625 L 511.03125,915.96875 C 511.03123,913.50043 510.52458,911.71753 509.53125,910.59375 C 508.53788,909.45994 507.22811,908.87499 505.5625,908.875 z M 520.3125,908.875 C 519.27901,908.87502 518.18629,909.04391 517.0625,909.375 C 516.28989,909.6058 515.45549,910.01067 514.5625,910.5625 L 514.5625,912.0625 C 515.58595,911.36014 516.42033,910.88704 517.0625,910.65625 C 518.06588,910.29505 519.068,910.09374 520.03125,910.09375 C 521.97781,910.09377 523.37587,910.59929 524.21875,911.5625 C 525.07161,912.52576 525.46873,913.755 525.46875,915.25 L 525.46875,915.5 L 522.0625,915.5 C 519.21288,915.50001 517.16047,916.04022 515.90625,917.09375 C 514.65202,918.13728 513.99999,919.53536 514,921.28125 C 514,923.02714 514.50548,924.34696 515.46875,925.25 C 516.432,926.14301 517.73061,926.59374 519.40625,926.59375 C 520.40963,926.59375 521.42409,926.3354 522.4375,925.84375 C 523.71179,925.23169 524.72739,923.80003 525.5,921.5625 L 525.5,926.15625 L 526.875,926.15625 L 526.875,916.53125 C 526.87498,913.67161 526.33251,911.72098 525.21875,910.6875 C 523.9344,909.48345 522.29921,908.87499 520.3125,908.875 z M 542.125,909.21875 C 538.17951,909.21878 535.21875,913.07115 535.21875,918.21875 C 535.21876,923.3972 537.93166,926.84375 542.03125,926.84375 C 543.97314,926.84376 545.14715,926.28736 546.75,924.46875 L 546.75,926.71875 C 546.74999,928.72231 545.25143,930.09375 543.09375,930.09375 C 541.4601,930.09377 540.37031,929.42003 540.03125,928.15625 L 535.5625,928.15625 C 535.59335,929.45086 536.07784,930.35653 537.1875,931.28125 C 538.51296,932.36009 540.37911,932.875 542.9375,932.875 C 547.96182,932.87501 550.84375,930.63339 550.84375,926.71875 L 550.84375,909.5 L 546.75,909.5 L 546.75,912.0625 C 545.45538,910.08978 544.03609,909.21875 542.125,909.21875 z M 563.875,909.21875 C 561.90227,909.21878 560.17472,910.5311 559.25,912.78125 L 559.25,909.5 L 554.9375,909.5 L 554.9375,926.15625 L 559.25,926.15625 L 559.25,917.3125 C 559.25,914.78492 560.53493,913.5 563.0625,913.5 C 563.52483,913.50002 563.82059,913.53253 564.40625,913.625 L 564.40625,909.25 C 564.15969,909.2192 563.9983,909.21875 563.875,909.21875 z M 475.3125,909.28125 L 475.3125,926.15625 L 476.6875,926.15625 L 476.6875,909.28125 L 475.3125,909.28125 z M 567.625,909.625 L 567.625,926.15625 L 571.90625,926.15625 L 571.90625,909.625 L 567.625,909.625 z M 487,910.09375 C 488.71578,910.09377 490.06914,910.80286 491.0625,912.1875 C 492.06587,913.57218 492.56247,915.42098 492.5625,917.71875 C 492.56248,920.08675 492.06588,921.95908 491.0625,923.34375 C 490.06914,924.71839 488.71579,925.40625 487,925.40625 C 485.27417,925.40625 483.93083,924.71839 482.9375,923.34375 C 481.94414,921.97915 481.43751,920.10678 481.4375,917.71875 C 481.4375,915.39091 481.9341,913.52085 482.9375,912.15625 C 483.93085,910.78163 485.28422,910.09374 487,910.09375 z M 543.0625,912.84375 C 545.2202,912.84374 546.8125,915.07385 546.8125,918.15625 C 546.81249,921.17702 545.25015,923.25 543,923.25 C 540.96563,923.24998 539.53125,921.177 539.53125,918.15625 C 539.53125,915.01223 540.96647,912.84375 543.0625,912.84375 z M 582.5,912.84375 C 582.62936,912.82719 582.7714,912.84375 582.90625,912.84375 C 585.09473,912.84374 586.53125,914.95013 586.53125,918.125 C 586.53126,921.14577 585.06393,923.25 582.90625,923.25 C 580.74855,923.24998 579.28125,921.11407 579.28125,918.0625 C 579.28127,915.17277 580.55958,913.09209 582.5,912.84375 z M 455.8125,916.625 L 459.59375,916.625 L 459.59375,917.6875 C 459.59374,919.26282 459.12062,920.93271 458.1875,922.71875 C 457.26437,924.50478 455.7321,925.40625 453.625,925.40625 C 452.51124,925.40625 451.56273,925.09087 450.75,924.46875 C 449.93725,923.84665 449.53124,922.79752 449.53125,921.3125 C 449.53125,919.78736 450.01667,918.6052 451,917.8125 C 451.98331,917.01983 453.58497,916.62504 455.8125,916.625 z M 521.71875,916.625 L 525.46875,916.625 L 525.46875,917.6875 C 525.46874,919.26282 525.02688,920.93271 524.09375,922.71875 C 523.17062,924.50478 521.63836,925.40625 519.53125,925.40625 C 518.41749,925.40625 517.46901,925.09087 516.65625,924.46875 C 515.8435,923.84665 515.43753,922.79752 515.4375,921.3125 C 515.4375,919.78736 515.9229,918.6052 516.90625,917.8125 C 517.88956,917.01983 519.49122,916.62504 521.71875,916.625 z "
           transform="matrix(0.8,0,0,-0.8,126,1008)"
           style="fill:#0078b3;fill-opacity:1"
           id="text3132" />
      </g>
    </g>
  </g>
</svg>
